<svg xmlns="http://www.w3.org/2000/svg" viewBox="0 0 64 64">
  <title>KITS Service</title>
  <defs>
    <linearGradient id="bg" x1="8" y1="4" x2="56" y2="60" gradientUnits="userSpaceOnUse">
      <stop stop-color="#2563eb"/>
      <stop offset="1" stop-color="#172554"/>
    </linearGradient>
  </defs>
  <rect width="64" height="64" rx="15" fill="url(#bg)"/>
  <path d="M32 10 50 17v13c0 12-7.4 20.4-18 25-10.6-4.6-18-13-18-25V17l18-7Z" fill="#fff"/>
  <path d="M32 16 44 20.7v9.1c0 8.1-4.5 14.3-12 18.2-7.5-3.9-12-10.1-12-18.2v-9.1L32 16Z" fill="#06b6d4"/>
  <path d="M27 23v18h4.5v-6l5.2 6H42l-7.5-9.3 7-8.7h-5.2l-4.8 6v-6H27Z" fill="#172554"/>
</svg>
